<?xml version="1.0" encoding="UTF-8" standalone="no"?>
<!DOCTYPE svg PUBLIC "-//W3C//DTD SVG 1.1//EN"
 "http://www.w3.org/Graphics/SVG/1.1/DTD/svg11.dtd">
<!-- Generated by graphviz version 2.47.0 (20210316.0004)
 -->
<!-- Title: dependencies Pages: 1 -->
<svg width="504pt" height="211pt"
 viewBox="0.00 0.00 504.00 211.00" xmlns="http://www.w3.org/2000/svg" xmlns:xlink="http://www.w3.org/1999/xlink">
<g id="graph0" class="graph" transform="scale(1 1) rotate(0) translate(4 207)">
<title>dependencies</title>
<polygon fill="white" stroke="transparent" points="-4,4 -4,-207 500,-207 500,4 -4,4"/>
<text text-anchor="start" x="227.01" y="-42.4" font-family="Times-12" font-weight="bold" font-size="14.00">Legend</text>
<polygon fill="#ffffb3" stroke="transparent" points="14,-10 14,-30 34,-30 34,-10 14,-10"/>
<text text-anchor="start" x="37.63" y="-15.4" font-family="Times-12" font-size="14.00"> &#160;Declarations</text>
<polygon fill="#8dd3c7" stroke="transparent" points="127,-10 127,-30 147,-30 147,-10 127,-10"/>
<text text-anchor="start" x="150.73" y="-15.4" font-family="Times-12" font-size="14.00"> &#160;Module</text>
<polygon fill="#80b1d3" stroke="transparent" points="213,-10 213,-30 233,-30 233,-10 213,-10"/>
<text text-anchor="start" x="236.78" y="-15.4" font-family="Times-12" font-size="14.00"> &#160;Bootstrap</text>
<polygon fill="#fdb462" stroke="transparent" points="310,-10 310,-30 330,-30 330,-10 310,-10"/>
<text text-anchor="start" x="333.67" y="-15.4" font-family="Times-12" font-size="14.00"> &#160;Providers</text>
<polygon fill="#fb8072" stroke="transparent" points="406,-10 406,-30 426,-30 426,-10 406,-10"/>
<text text-anchor="start" x="429.73" y="-15.4" font-family="Times-12" font-size="14.00"> &#160;Exports</text>
<g id="clust1" class="cluster">
<title>cluster_AboutPageModule</title>
<polygon fill="none" stroke="black" stroke-dasharray="1,5" points="39.5,-70 39.5,-195 456.5,-195 456.5,-70 39.5,-70"/>
</g>
<g id="clust4" class="cluster">
<title>cluster_AboutPageModule_imports</title>
<polygon fill="none" stroke="black" points="149.5,-78 149.5,-130 448.5,-130 448.5,-78 149.5,-78"/>
</g>
<g id="clust2" class="cluster">
<title>cluster_AboutPageModule_declarations</title>
<polygon fill="none" stroke="black" points="47.5,-78 47.5,-130 141.5,-130 141.5,-78 47.5,-78"/>
</g>
<!-- AboutPage -->
<g id="node1" class="node">
<title>AboutPage</title>
<polygon fill="#ffffb3" stroke="black" points="133.71,-122 55.29,-122 55.29,-86 133.71,-86 133.71,-122"/>
<text text-anchor="middle" x="94.5" y="-99.8" font-family="Times,serif" font-size="14.00">AboutPage</text>
</g>
<!-- AboutPageModule -->
<g id="node2" class="node">
<title>AboutPageModule</title>
<polygon fill="#8dd3c7" stroke="black" points="267.26,-187 264.26,-191 243.26,-191 240.26,-187 145.74,-187 145.74,-151 267.26,-151 267.26,-187"/>
<text text-anchor="middle" x="206.5" y="-164.8" font-family="Times,serif" font-size="14.00">AboutPageModule</text>
</g>
<!-- AboutPage&#45;&gt;AboutPageModule -->
<g id="edge1" class="edge">
<title>AboutPage&#45;&gt;AboutPageModule</title>
<path fill="none" stroke="black" d="M133.75,-104C143.61,-104 151.45,-104 151.45,-104 151.45,-104 151.45,-140.89 151.45,-140.89"/>
<polygon fill="black" stroke="black" points="147.95,-140.89 151.45,-150.89 154.95,-140.89 147.95,-140.89"/>
</g>
<!-- AboutPageRoutingModule -->
<g id="node3" class="node">
<title>AboutPageRoutingModule</title>
<polygon fill="#8dd3c7" stroke="black" points="440.88,-122 437.88,-126 416.88,-126 413.88,-122 274.12,-122 274.12,-86 440.88,-86 440.88,-122"/>
<text text-anchor="middle" x="357.5" y="-99.8" font-family="Times,serif" font-size="14.00">AboutPageRoutingModule</text>
</g>
<!-- AboutPageRoutingModule&#45;&gt;AboutPageModule -->
<g id="edge2" class="edge">
<title>AboutPageRoutingModule&#45;&gt;AboutPageModule</title>
<path fill="none" stroke="black" d="M274.09,-104C266.47,-104 261.55,-104 261.55,-104 261.55,-104 261.55,-140.89 261.55,-140.89"/>
<polygon fill="black" stroke="black" points="258.05,-140.89 261.55,-150.89 265.05,-140.89 258.05,-140.89"/>
</g>
<!-- SharedModule -->
<g id="node4" class="node">
<title>SharedModule</title>
<polygon fill="#8dd3c7" stroke="black" points="255.92,-122 252.92,-126 231.92,-126 228.92,-122 157.08,-122 157.08,-86 255.92,-86 255.92,-122"/>
<text text-anchor="middle" x="206.5" y="-99.8" font-family="Times,serif" font-size="14.00">SharedModule</text>
</g>
<!-- SharedModule&#45;&gt;AboutPageModule -->
<g id="edge3" class="edge">
<title>SharedModule&#45;&gt;AboutPageModule</title>
<path fill="none" stroke="black" d="M206.5,-122.11C206.5,-122.11 206.5,-140.99 206.5,-140.99"/>
<polygon fill="black" stroke="black" points="203,-140.99 206.5,-150.99 210,-140.99 203,-140.99"/>
</g>
</g>
</svg>
