<?xml version="1.0" encoding="UTF-8" standalone="no"?>
<!DOCTYPE svg PUBLIC "-//W3C//DTD SVG 1.1//EN"
 "http://www.w3.org/Graphics/SVG/1.1/DTD/svg11.dtd">
<!-- Generated by graphviz version 2.47.0 (20210316.0004)
 -->
<!-- Title: dependencies Pages: 1 -->
<svg width="2480pt" height="284pt"
 viewBox="0.00 0.00 2480.00 284.00" xmlns="http://www.w3.org/2000/svg" xmlns:xlink="http://www.w3.org/1999/xlink">
<g id="graph0" class="graph" transform="scale(1 1) rotate(0) translate(4 280)">
<title>dependencies</title>
<polygon fill="white" stroke="transparent" points="-4,4 -4,-280 2476,-280 2476,4 -4,4"/>
<text text-anchor="start" x="1215.01" y="-42.4" font-family="Times-12" font-weight="bold" font-size="14.00">Legend</text>
<polygon fill="#ffffb3" stroke="transparent" points="1002,-10 1002,-30 1022,-30 1022,-10 1002,-10"/>
<text text-anchor="start" x="1025.63" y="-15.4" font-family="Times-12" font-size="14.00"> &#160;Declarations</text>
<polygon fill="#8dd3c7" stroke="transparent" points="1115,-10 1115,-30 1135,-30 1135,-10 1115,-10"/>
<text text-anchor="start" x="1138.73" y="-15.4" font-family="Times-12" font-size="14.00"> &#160;Module</text>
<polygon fill="#80b1d3" stroke="transparent" points="1201,-10 1201,-30 1221,-30 1221,-10 1201,-10"/>
<text text-anchor="start" x="1224.78" y="-15.4" font-family="Times-12" font-size="14.00"> &#160;Bootstrap</text>
<polygon fill="#fdb462" stroke="transparent" points="1298,-10 1298,-30 1318,-30 1318,-10 1298,-10"/>
<text text-anchor="start" x="1321.67" y="-15.4" font-family="Times-12" font-size="14.00"> &#160;Providers</text>
<polygon fill="#fb8072" stroke="transparent" points="1394,-10 1394,-30 1414,-30 1414,-10 1394,-10"/>
<text text-anchor="start" x="1417.73" y="-15.4" font-family="Times-12" font-size="14.00"> &#160;Exports</text>
<g id="clust1" class="cluster">
<title>cluster_SharedModule</title>
<polygon fill="none" stroke="black" stroke-dasharray="1,5" points="8,-70 8,-268 2464,-268 2464,-70 8,-70"/>
</g>
<g id="clust19" class="cluster">
<title>cluster_SharedModule_exports</title>
<polygon fill="none" stroke="black" points="40,-208 40,-260 2432,-260 2432,-208 40,-208"/>
</g>
<g id="clust2" class="cluster">
<title>cluster_SharedModule_declarations</title>
<polygon fill="none" stroke="black" points="16,-78 16,-130 2456,-130 2456,-78 16,-78"/>
</g>
<!-- AppToolbarComponent -->
<g id="node1" class="node">
<title>AppToolbarComponent</title>
<polygon fill="#ffffb3" stroke="black" points="2447.76,-122 2298.24,-122 2298.24,-86 2447.76,-86 2447.76,-122"/>
<text text-anchor="middle" x="2373" y="-99.8" font-family="Times,serif" font-size="14.00">AppToolbarComponent</text>
</g>
<!-- SharedModule -->
<g id="node16" class="node">
<title>SharedModule</title>
<polygon fill="#8dd3c7" stroke="black" points="1312.42,-187 1309.42,-191 1288.42,-191 1285.42,-187 1213.58,-187 1213.58,-151 1312.42,-151 1312.42,-187"/>
<text text-anchor="middle" x="1263" y="-164.8" font-family="Times,serif" font-size="14.00">SharedModule</text>
</g>
<!-- AppToolbarComponent&#45;&gt;SharedModule -->
<g id="edge1" class="edge">
<title>AppToolbarComponent&#45;&gt;SharedModule</title>
<path fill="none" stroke="black" d="M2360.88,-122.11C2360.88,-141.34 2360.88,-169 2360.88,-169 2360.88,-169 1322.31,-169 1322.31,-169"/>
<polygon fill="black" stroke="black" points="1322.31,-165.5 1312.31,-169 1322.31,-172.5 1322.31,-165.5"/>
</g>
<!-- ErrorModalComponent -->
<g id="node2" class="node">
<title>ErrorModalComponent</title>
<polygon fill="#ffffb3" stroke="black" points="2279.92,-122 2132.08,-122 2132.08,-86 2279.92,-86 2279.92,-122"/>
<text text-anchor="middle" x="2206" y="-99.8" font-family="Times,serif" font-size="14.00">ErrorModalComponent</text>
</g>
<!-- ErrorModalComponent&#45;&gt;SharedModule -->
<g id="edge2" class="edge">
<title>ErrorModalComponent&#45;&gt;SharedModule</title>
<path fill="none" stroke="black" d="M2192.38,-122.22C2192.38,-140.83 2192.38,-167 2192.38,-167 2192.38,-167 1322.31,-167 1322.31,-167"/>
<polygon fill="black" stroke="black" points="1322.31,-163.5 1312.31,-167 1322.31,-170.5 1322.31,-163.5"/>
</g>
<!-- GameDetailComponent -->
<g id="node3" class="node">
<title>GameDetailComponent</title>
<polygon fill="#ffffb3" stroke="black" points="2114.47,-122 1965.53,-122 1965.53,-86 2114.47,-86 2114.47,-122"/>
<text text-anchor="middle" x="2040" y="-99.8" font-family="Times,serif" font-size="14.00">GameDetailComponent</text>
</g>
<!-- GameDetailComponent&#45;&gt;SharedModule -->
<g id="edge3" class="edge">
<title>GameDetailComponent&#45;&gt;SharedModule</title>
<path fill="none" stroke="black" d="M2024.38,-122C2024.38,-139.68 2024.38,-164 2024.38,-164 2024.38,-164 1322.37,-164 1322.37,-164"/>
<polygon fill="black" stroke="black" points="1322.37,-160.5 1312.37,-164 1322.37,-167.5 1322.37,-160.5"/>
</g>
<!-- GameInfoComponent -->
<g id="node4" class="node">
<title>GameInfoComponent</title>
<polygon fill="#ffffb3" stroke="black" points="1947.08,-122 1808.92,-122 1808.92,-86 1947.08,-86 1947.08,-122"/>
<text text-anchor="middle" x="1878" y="-99.8" font-family="Times,serif" font-size="14.00">GameInfoComponent</text>
</g>
<!-- GameInfoComponent&#45;&gt;SharedModule -->
<g id="edge4" class="edge">
<title>GameInfoComponent&#45;&gt;SharedModule</title>
<path fill="none" stroke="black" d="M1860.88,-122.03C1860.88,-139.06 1860.88,-162 1860.88,-162 1860.88,-162 1322.44,-162 1322.44,-162"/>
<polygon fill="black" stroke="black" points="1322.44,-158.5 1312.44,-162 1322.44,-165.5 1322.44,-158.5"/>
</g>
<!-- LoginFormComponent -->
<g id="node5" class="node">
<title>LoginFormComponent</title>
<polygon fill="#ffffb3" stroke="black" points="1790.61,-122 1645.39,-122 1645.39,-86 1790.61,-86 1790.61,-122"/>
<text text-anchor="middle" x="1718" y="-99.8" font-family="Times,serif" font-size="14.00">LoginFormComponent</text>
</g>
<!-- LoginFormComponent&#45;&gt;SharedModule -->
<g id="edge5" class="edge">
<title>LoginFormComponent&#45;&gt;SharedModule</title>
<path fill="none" stroke="black" d="M1699.38,-122.01C1699.38,-138.05 1699.38,-159 1699.38,-159 1699.38,-159 1322.63,-159 1322.63,-159"/>
<polygon fill="black" stroke="black" points="1322.63,-155.5 1312.63,-159 1322.63,-162.5 1322.63,-155.5"/>
</g>
<!-- NamePipe -->
<g id="node6" class="node">
<title>NamePipe</title>
<polygon fill="#ffffb3" stroke="black" points="1627.31,-122 1552.69,-122 1552.69,-86 1627.31,-86 1627.31,-122"/>
<text text-anchor="middle" x="1590" y="-99.8" font-family="Times,serif" font-size="14.00">NamePipe</text>
</g>
<!-- NamePipe&#45;&gt;SharedModule -->
<g id="edge6" class="edge">
<title>NamePipe&#45;&gt;SharedModule</title>
<path fill="none" stroke="black" d="M1569.92,-122.24C1569.92,-137.57 1569.92,-157 1569.92,-157 1569.92,-157 1322.31,-157 1322.31,-157"/>
<polygon fill="black" stroke="black" points="1322.31,-153.5 1312.31,-157 1322.31,-160.5 1322.31,-153.5"/>
</g>
<!-- PictureSelectableComponent -->
<g id="node7" class="node">
<title>PictureSelectableComponent</title>
<polygon fill="#ffffb3" stroke="black" points="1535.01,-122 1356.99,-122 1356.99,-86 1535.01,-86 1535.01,-122"/>
<text text-anchor="middle" x="1446" y="-99.8" font-family="Times,serif" font-size="14.00">PictureSelectableComponent</text>
</g>
<!-- PictureSelectableComponent&#45;&gt;SharedModule -->
<g id="edge7" class="edge">
<title>PictureSelectableComponent&#45;&gt;SharedModule</title>
<path fill="none" stroke="black" d="M1372.07,-122.05C1372.07,-136.37 1372.07,-154 1372.07,-154 1372.07,-154 1322.43,-154 1322.43,-154"/>
<polygon fill="black" stroke="black" points="1322.43,-150.5 1312.43,-154 1322.43,-157.5 1322.43,-150.5"/>
</g>
<!-- PlayerDetailComponent -->
<g id="node8" class="node">
<title>PlayerDetailComponent</title>
<polygon fill="#ffffb3" stroke="black" points="1338.8,-122 1187.2,-122 1187.2,-86 1338.8,-86 1338.8,-122"/>
<text text-anchor="middle" x="1263" y="-99.8" font-family="Times,serif" font-size="14.00">PlayerDetailComponent</text>
</g>
<!-- PlayerDetailComponent&#45;&gt;SharedModule -->
<g id="edge8" class="edge">
<title>PlayerDetailComponent&#45;&gt;SharedModule</title>
<path fill="none" stroke="black" d="M1263,-122.11C1263,-122.11 1263,-140.99 1263,-140.99"/>
<polygon fill="black" stroke="black" points="1259.5,-140.99 1263,-150.99 1266.5,-140.99 1259.5,-140.99"/>
</g>
<!-- PlayerInfoComponent -->
<g id="node9" class="node">
<title>PlayerInfoComponent</title>
<polygon fill="#ffffb3" stroke="black" points="1169.42,-122 1028.58,-122 1028.58,-86 1169.42,-86 1169.42,-122"/>
<text text-anchor="middle" x="1099" y="-99.8" font-family="Times,serif" font-size="14.00">PlayerInfoComponent</text>
</g>
<!-- PlayerInfoComponent&#45;&gt;SharedModule -->
<g id="edge9" class="edge">
<title>PlayerInfoComponent&#45;&gt;SharedModule</title>
<path fill="none" stroke="black" d="M1120.12,-122.05C1120.12,-136.37 1120.12,-154 1120.12,-154 1120.12,-154 1203.43,-154 1203.43,-154"/>
<polygon fill="black" stroke="black" points="1203.43,-157.5 1213.43,-154 1203.43,-150.5 1203.43,-157.5"/>
</g>
<!-- PositionImageDirective -->
<g id="node10" class="node">
<title>PositionImageDirective</title>
<polygon fill="#ffffb3" stroke="black" points="1010.46,-122 861.54,-122 861.54,-86 1010.46,-86 1010.46,-122"/>
<text text-anchor="middle" x="936" y="-99.8" font-family="Times,serif" font-size="14.00">PositionImageDirective</text>
</g>
<!-- PositionImageDirective&#45;&gt;SharedModule -->
<g id="edge10" class="edge">
<title>PositionImageDirective&#45;&gt;SharedModule</title>
<path fill="none" stroke="black" d="M955.62,-122.24C955.62,-137.57 955.62,-157 955.62,-157 955.62,-157 1203.61,-157 1203.61,-157"/>
<polygon fill="black" stroke="black" points="1203.61,-160.5 1213.61,-157 1203.61,-153.5 1203.61,-160.5"/>
</g>
<!-- PositionSelectorComponent -->
<g id="node11" class="node">
<title>PositionSelectorComponent</title>
<polygon fill="#ffffb3" stroke="black" points="843.6,-122 670.4,-122 670.4,-86 843.6,-86 843.6,-122"/>
<text text-anchor="middle" x="757" y="-99.8" font-family="Times,serif" font-size="14.00">PositionSelectorComponent</text>
</g>
<!-- PositionSelectorComponent&#45;&gt;SharedModule -->
<g id="edge11" class="edge">
<title>PositionSelectorComponent&#45;&gt;SharedModule</title>
<path fill="none" stroke="black" d="M774.62,-122.01C774.62,-138.05 774.62,-159 774.62,-159 774.62,-159 1203.48,-159 1203.48,-159"/>
<polygon fill="black" stroke="black" points="1203.48,-162.5 1213.48,-159 1203.48,-155.5 1203.48,-162.5"/>
</g>
<!-- RegisterFormComponent -->
<g id="node12" class="node">
<title>RegisterFormComponent</title>
<polygon fill="#ffffb3" stroke="black" points="652.32,-122 493.68,-122 493.68,-86 652.32,-86 652.32,-122"/>
<text text-anchor="middle" x="573" y="-99.8" font-family="Times,serif" font-size="14.00">RegisterFormComponent</text>
</g>
<!-- RegisterFormComponent&#45;&gt;SharedModule -->
<g id="edge12" class="edge">
<title>RegisterFormComponent&#45;&gt;SharedModule</title>
<path fill="none" stroke="black" d="M589.12,-122.03C589.12,-139.06 589.12,-162 589.12,-162 589.12,-162 1203.72,-162 1203.72,-162"/>
<polygon fill="black" stroke="black" points="1203.72,-165.5 1213.72,-162 1203.72,-158.5 1203.72,-165.5"/>
</g>
<!-- TeamDetailComponent -->
<g id="node13" class="node">
<title>TeamDetailComponent</title>
<polygon fill="#ffffb3" stroke="black" points="475.91,-122 328.09,-122 328.09,-86 475.91,-86 475.91,-122"/>
<text text-anchor="middle" x="402" y="-99.8" font-family="Times,serif" font-size="14.00">TeamDetailComponent</text>
</g>
<!-- TeamDetailComponent&#45;&gt;SharedModule -->
<g id="edge13" class="edge">
<title>TeamDetailComponent&#45;&gt;SharedModule</title>
<path fill="none" stroke="black" d="M416.62,-122C416.62,-139.68 416.62,-164 416.62,-164 416.62,-164 1203.53,-164 1203.53,-164"/>
<polygon fill="black" stroke="black" points="1203.53,-167.5 1213.53,-164 1203.53,-160.5 1203.53,-167.5"/>
</g>
<!-- TeamInfoComponent -->
<g id="node14" class="node">
<title>TeamInfoComponent</title>
<polygon fill="#ffffb3" stroke="black" points="310.03,-122 173.97,-122 173.97,-86 310.03,-86 310.03,-122"/>
<text text-anchor="middle" x="242" y="-99.8" font-family="Times,serif" font-size="14.00">TeamInfoComponent</text>
</g>
<!-- TeamInfoComponent&#45;&gt;SharedModule -->
<g id="edge14" class="edge">
<title>TeamInfoComponent&#45;&gt;SharedModule</title>
<path fill="none" stroke="black" d="M255.12,-122.22C255.12,-140.83 255.12,-167 255.12,-167 255.12,-167 1203.71,-167 1203.71,-167"/>
<polygon fill="black" stroke="black" points="1203.71,-170.5 1213.71,-167 1203.71,-163.5 1203.71,-170.5"/>
</g>
<!-- UserInfoComponent -->
<g id="node15" class="node">
<title>UserInfoComponent</title>
<polygon fill="#ffffb3" stroke="black" points="155.58,-122 24.42,-122 24.42,-86 155.58,-86 155.58,-122"/>
<text text-anchor="middle" x="90" y="-99.8" font-family="Times,serif" font-size="14.00">UserInfoComponent</text>
</g>
<!-- UserInfoComponent&#45;&gt;SharedModule -->
<g id="edge15" class="edge">
<title>UserInfoComponent&#45;&gt;SharedModule</title>
<path fill="none" stroke="black" d="M101.62,-122.11C101.62,-141.34 101.62,-169 101.62,-169 101.62,-169 1203.47,-169 1203.47,-169"/>
<polygon fill="black" stroke="black" points="1203.47,-172.5 1213.47,-169 1203.47,-165.5 1203.47,-172.5"/>
</g>
<!-- AppToolbarComponent  -->
<g id="node17" class="node">
<title>AppToolbarComponent </title>
<polygon fill="#fb8072" stroke="black" points="2423.76,-252 2270.24,-252 2270.24,-216 2423.76,-216 2423.76,-252"/>
<text text-anchor="middle" x="2347" y="-229.8" font-family="Times,serif" font-size="14.00">AppToolbarComponent </text>
</g>
<!-- SharedModule&#45;&gt;AppToolbarComponent  -->
<g id="edge16" class="edge">
<title>SharedModule&#45;&gt;AppToolbarComponent </title>
<path fill="none" stroke="black" stroke-dasharray="5,2" d="M1312.5,-172C1515.68,-172 2275.04,-172 2275.04,-172 2275.04,-172 2275.04,-205.73 2275.04,-205.73"/>
<polygon fill="black" stroke="black" points="2271.54,-205.73 2275.04,-215.73 2278.54,-205.73 2271.54,-205.73"/>
</g>
<!-- ErrorModalComponent  -->
<g id="node18" class="node">
<title>ErrorModalComponent </title>
<polygon fill="#fb8072" stroke="black" points="2252.42,-252 2101.58,-252 2101.58,-216 2252.42,-216 2252.42,-252"/>
<text text-anchor="middle" x="2177" y="-229.8" font-family="Times,serif" font-size="14.00">ErrorModalComponent </text>
</g>
<!-- SharedModule&#45;&gt;ErrorModalComponent  -->
<g id="edge17" class="edge">
<title>SharedModule&#45;&gt;ErrorModalComponent </title>
<path fill="none" stroke="black" stroke-dasharray="5,2" d="M1312.39,-175C1493.13,-175 2108.01,-175 2108.01,-175 2108.01,-175 2108.01,-205.98 2108.01,-205.98"/>
<polygon fill="black" stroke="black" points="2104.51,-205.98 2108.01,-215.98 2111.51,-205.98 2104.51,-205.98"/>
</g>
<!-- GameDetailComponent  -->
<g id="node19" class="node">
<title>GameDetailComponent </title>
<polygon fill="#fb8072" stroke="black" points="2083.47,-252 1930.53,-252 1930.53,-216 2083.47,-216 2083.47,-252"/>
<text text-anchor="middle" x="2007" y="-229.8" font-family="Times,serif" font-size="14.00">GameDetailComponent </text>
</g>
<!-- SharedModule&#45;&gt;GameDetailComponent  -->
<g id="edge18" class="edge">
<title>SharedModule&#45;&gt;GameDetailComponent </title>
<path fill="none" stroke="black" stroke-dasharray="5,2" d="M1312.43,-177C1468.24,-177 1938.9,-177 1938.9,-177 1938.9,-177 1938.9,-205.96 1938.9,-205.96"/>
<polygon fill="black" stroke="black" points="1935.4,-205.96 1938.9,-215.96 1942.4,-205.96 1935.4,-205.96"/>
</g>
<!-- GameInfoComponent  -->
<g id="node20" class="node">
<title>GameInfoComponent </title>
<polygon fill="#fb8072" stroke="black" points="1912.58,-252 1771.42,-252 1771.42,-216 1912.58,-216 1912.58,-252"/>
<text text-anchor="middle" x="1842" y="-229.8" font-family="Times,serif" font-size="14.00">GameInfoComponent </text>
</g>
<!-- SharedModule&#45;&gt;GameInfoComponent  -->
<g id="edge19" class="edge">
<title>SharedModule&#45;&gt;GameInfoComponent </title>
<path fill="none" stroke="black" stroke-dasharray="5,2" d="M1312.66,-180C1442.28,-180 1780.88,-180 1780.88,-180 1780.88,-180 1780.88,-205.72 1780.88,-205.72"/>
<polygon fill="black" stroke="black" points="1777.38,-205.72 1780.88,-215.72 1784.38,-205.72 1777.38,-205.72"/>
</g>
<!-- LoginFormComponent  -->
<g id="node21" class="node">
<title>LoginFormComponent </title>
<polygon fill="#fb8072" stroke="black" points="1753.11,-252 1604.89,-252 1604.89,-216 1753.11,-216 1753.11,-252"/>
<text text-anchor="middle" x="1679" y="-229.8" font-family="Times,serif" font-size="14.00">LoginFormComponent </text>
</g>
<!-- SharedModule&#45;&gt;LoginFormComponent  -->
<g id="edge20" class="edge">
<title>SharedModule&#45;&gt;LoginFormComponent </title>
<path fill="none" stroke="black" stroke-dasharray="5,2" d="M1312.44,-182C1409.57,-182 1615.93,-182 1615.93,-182 1615.93,-182 1615.93,-205.81 1615.93,-205.81"/>
<polygon fill="black" stroke="black" points="1612.43,-205.81 1615.93,-215.81 1619.43,-205.81 1612.43,-205.81"/>
</g>
<!-- PictureSelectableComponent  -->
<g id="node22" class="node">
<title>PictureSelectableComponent </title>
<polygon fill="#fb8072" stroke="black" points="1587.01,-252 1404.99,-252 1404.99,-216 1587.01,-216 1587.01,-252"/>
<text text-anchor="middle" x="1496" y="-229.8" font-family="Times,serif" font-size="14.00">PictureSelectableComponent </text>
</g>
<!-- SharedModule&#45;&gt;PictureSelectableComponent  -->
<g id="edge21" class="edge">
<title>SharedModule&#45;&gt;PictureSelectableComponent </title>
<path fill="none" stroke="black" stroke-dasharray="5,2" d="M1312.35,-185C1373.61,-185 1470.12,-185 1470.12,-185 1470.12,-185 1470.12,-205.75 1470.12,-205.75"/>
<polygon fill="black" stroke="black" points="1466.63,-205.75 1470.12,-215.75 1473.63,-205.75 1466.63,-205.75"/>
</g>
<!-- PlayerDetailComponent  -->
<g id="node23" class="node">
<title>PlayerDetailComponent </title>
<polygon fill="#fb8072" stroke="black" points="1387.3,-252 1232.7,-252 1232.7,-216 1387.3,-216 1387.3,-252"/>
<text text-anchor="middle" x="1310" y="-229.8" font-family="Times,serif" font-size="14.00">PlayerDetailComponent </text>
</g>
<!-- SharedModule&#45;&gt;PlayerDetailComponent  -->
<g id="edge22" class="edge">
<title>SharedModule&#45;&gt;PlayerDetailComponent </title>
<path fill="none" stroke="black" stroke-dasharray="5,2" d="M1272.4,-187.11C1272.4,-187.11 1272.4,-205.99 1272.4,-205.99"/>
<polygon fill="black" stroke="black" points="1268.9,-205.99 1272.4,-215.99 1275.9,-205.99 1268.9,-205.99"/>
</g>
<!-- PlayerInfoComponent  -->
<g id="node24" class="node">
<title>PlayerInfoComponent </title>
<polygon fill="#fb8072" stroke="black" points="1214.92,-252 1071.08,-252 1071.08,-216 1214.92,-216 1214.92,-252"/>
<text text-anchor="middle" x="1143" y="-229.8" font-family="Times,serif" font-size="14.00">PlayerInfoComponent </text>
</g>
<!-- SharedModule&#45;&gt;PlayerInfoComponent  -->
<g id="edge23" class="edge">
<title>SharedModule&#45;&gt;PlayerInfoComponent </title>
<path fill="none" stroke="black" stroke-dasharray="5,2" d="M1223.78,-187.11C1223.78,-206.34 1223.78,-234 1223.78,-234 1223.78,-234 1222.91,-234 1222.91,-234"/>
<polygon fill="black" stroke="black" points="1225.13,-230.5 1215.13,-234 1225.13,-237.5 1225.13,-230.5"/>
</g>
<!-- PositionImageDirective  -->
<g id="node25" class="node">
<title>PositionImageDirective </title>
<polygon fill="#fb8072" stroke="black" points="1053.46,-252 900.54,-252 900.54,-216 1053.46,-216 1053.46,-252"/>
<text text-anchor="middle" x="977" y="-229.8" font-family="Times,serif" font-size="14.00">PositionImageDirective </text>
</g>
<!-- SharedModule&#45;&gt;PositionImageDirective  -->
<g id="edge24" class="edge">
<title>SharedModule&#45;&gt;PositionImageDirective </title>
<path fill="none" stroke="black" stroke-dasharray="5,2" d="M1213.73,-185C1148.33,-185 1041.01,-185 1041.01,-185 1041.01,-185 1041.01,-205.75 1041.01,-205.75"/>
<polygon fill="black" stroke="black" points="1037.51,-205.75 1041.01,-215.75 1044.51,-205.75 1037.51,-205.75"/>
</g>
<!-- PositionSelectorComponent  -->
<g id="node26" class="node">
<title>PositionSelectorComponent </title>
<polygon fill="#fb8072" stroke="black" points="882.1,-252 705.9,-252 705.9,-216 882.1,-216 882.1,-252"/>
<text text-anchor="middle" x="794" y="-229.8" font-family="Times,serif" font-size="14.00">PositionSelectorComponent </text>
</g>
<!-- SharedModule&#45;&gt;PositionSelectorComponent  -->
<g id="edge25" class="edge">
<title>SharedModule&#45;&gt;PositionSelectorComponent </title>
<path fill="none" stroke="black" stroke-dasharray="5,2" d="M1213.47,-182C1108.23,-182 871.91,-182 871.91,-182 871.91,-182 871.91,-205.81 871.91,-205.81"/>
<polygon fill="black" stroke="black" points="868.41,-205.81 871.91,-215.81 875.41,-205.81 868.41,-205.81"/>
</g>
<!-- RegisterFormComponent  -->
<g id="node27" class="node">
<title>RegisterFormComponent </title>
<polygon fill="#fb8072" stroke="black" points="687.82,-252 526.18,-252 526.18,-216 687.82,-216 687.82,-252"/>
<text text-anchor="middle" x="607" y="-229.8" font-family="Times,serif" font-size="14.00">RegisterFormComponent </text>
</g>
<!-- SharedModule&#45;&gt;RegisterFormComponent  -->
<g id="edge26" class="edge">
<title>SharedModule&#45;&gt;RegisterFormComponent </title>
<path fill="none" stroke="black" stroke-dasharray="5,2" d="M1213.73,-180C1072.98,-180 679.18,-180 679.18,-180 679.18,-180 679.18,-205.72 679.18,-205.72"/>
<polygon fill="black" stroke="black" points="675.68,-205.72 679.18,-215.72 682.68,-205.72 675.68,-205.72"/>
</g>
<!-- TeamDetailComponent  -->
<g id="node28" class="node">
<title>TeamDetailComponent </title>
<polygon fill="#fb8072" stroke="black" points="508.41,-252 357.59,-252 357.59,-216 508.41,-216 508.41,-252"/>
<text text-anchor="middle" x="433" y="-229.8" font-family="Times,serif" font-size="14.00">TeamDetailComponent </text>
</g>
<!-- SharedModule&#45;&gt;TeamDetailComponent  -->
<g id="edge27" class="edge">
<title>SharedModule&#45;&gt;TeamDetailComponent </title>
<path fill="none" stroke="black" stroke-dasharray="5,2" d="M1213.6,-177C1044.78,-177 501.15,-177 501.15,-177 501.15,-177 501.15,-205.96 501.15,-205.96"/>
<polygon fill="black" stroke="black" points="497.65,-205.96 501.15,-215.96 504.65,-205.96 497.65,-205.96"/>
</g>
<!-- TeamInfoComponent  -->
<g id="node29" class="node">
<title>TeamInfoComponent </title>
<polygon fill="#fb8072" stroke="black" points="340.03,-252 199.97,-252 199.97,-216 340.03,-216 340.03,-252"/>
<text text-anchor="middle" x="270" y="-229.8" font-family="Times,serif" font-size="14.00">TeamInfoComponent </text>
</g>
<!-- SharedModule&#45;&gt;TeamInfoComponent  -->
<g id="edge28" class="edge">
<title>SharedModule&#45;&gt;TeamInfoComponent </title>
<path fill="none" stroke="black" stroke-dasharray="5,2" d="M1213.72,-175C1021.69,-175 334.15,-175 334.15,-175 334.15,-175 334.15,-205.98 334.15,-205.98"/>
<polygon fill="black" stroke="black" points="330.65,-205.98 334.15,-215.98 337.65,-205.98 330.65,-205.98"/>
</g>
<!-- UserInfoComponent  -->
<g id="node30" class="node">
<title>UserInfoComponent </title>
<polygon fill="#fb8072" stroke="black" points="182.08,-252 47.92,-252 47.92,-216 182.08,-216 182.08,-252"/>
<text text-anchor="middle" x="115" y="-229.8" font-family="Times,serif" font-size="14.00">UserInfoComponent </text>
</g>
<!-- SharedModule&#45;&gt;UserInfoComponent  -->
<g id="edge29" class="edge">
<title>SharedModule&#45;&gt;UserInfoComponent </title>
<path fill="none" stroke="black" stroke-dasharray="5,2" d="M1213.56,-172C1001.31,-172 178.01,-172 178.01,-172 178.01,-172 178.01,-205.73 178.01,-205.73"/>
<polygon fill="black" stroke="black" points="174.51,-205.73 178.01,-215.73 181.51,-205.73 174.51,-205.73"/>
</g>
</g>
</svg>
